<svg xmlns="http://www.w3.org/2000/svg" viewBox="0 0 48.53 48.19"><defs><style>.cls-1{opacity:0.16;}.cls-2{fill:#3491fa;}</style></defs><g id="图层_2" data-name="图层 2"><g id="图层_1-2" data-name="图层 1"><g class="cls-1"><path class="cls-2" d="M42,39.7H1.7A1.68,1.68,0,0,0,0,41.4a1.58,1.58,0,0,0,1.7,1.7h.6a1.5,1.5,0,0,0,1.4,1h2a1.5,1.5,0,0,0,1.4-1h29a1.5,1.5,0,0,0,1.4,1h2a1.5,1.5,0,0,0,1.4-1h.6a1.68,1.68,0,0,0,1.7-1.7C43.4,40.3,42.8,39.7,42,39.7Zm0-5.3H37.9l-.4-17.3a8.57,8.57,0,0,0,6.6-8.4A8.84,8.84,0,0,0,35.4,0a8.62,8.62,0,0,0-2,17L33,34.3H1.7A1.75,1.75,0,0,0,0,36v1a1.68,1.68,0,0,0,1.7,1.7H41.8A1.68,1.68,0,0,0,43.5,37V36A1.71,1.71,0,0,0,42,34.4ZM29.6,8.8a5.55,5.55,0,0,1,5.6-5.7,5.65,5.65,0,1,1,0,11.3,5.59,5.59,0,0,1-5.6-5.6ZM10.3,32.1H20a3.66,3.66,0,0,0,3.3,2.3,3.6,3.6,0,0,0,3.3-2.3h1.9a1.68,1.68,0,0,0,1.7-1.7V24a.73.73,0,0,0-.2-.6l-2-5.6a1.5,1.5,0,0,0-1.4-1H22v-1a1.68,1.68,0,0,0-1.7-1.7H1.6A1.6,1.6,0,0,0,0,15.8V30.4a1.68,1.68,0,0,0,1.7,1.7H3.6a3.66,3.66,0,0,0,3.3,2.3A3.79,3.79,0,0,0,10.3,32.1Zm15-12.2.8,2.5H21.8V19.9Zm10.9-10,1.4-1.4a1.69,1.69,0,0,0,0-2.3,1.69,1.69,0,0,0-2.3,0L34.1,7.6a1.69,1.69,0,0,0,0,2.3,1.53,1.53,0,0,0,1,.4,1.82,1.82,0,0,0,1.1-.4ZM6.7.7H16V3H12.7v8.8H10V3H6.7Z"/></g><path class="cls-2" d="M46.43,43.79H6.13a1.68,1.68,0,0,0-1.7,1.7,1.58,1.58,0,0,0,1.7,1.7h.6a1.5,1.5,0,0,0,1.4,1h2a1.5,1.5,0,0,0,1.4-1h29a1.5,1.5,0,0,0,1.4,1h2a1.5,1.5,0,0,0,1.4-1h.6a1.68,1.68,0,0,0,1.7-1.7C47.83,44.39,47.23,43.79,46.43,43.79Zm0-5.3h-4.1l-.4-17.3a8.57,8.57,0,0,0,6.6-8.4,8.84,8.84,0,0,0-8.7-8.7,8.62,8.62,0,0,0-2,17l-.4,17.3H6.13a1.75,1.75,0,0,0-1.7,1.7v1a1.68,1.68,0,0,0,1.7,1.7h40.1a1.68,1.68,0,0,0,1.7-1.7v-1A1.71,1.71,0,0,0,46.43,38.49ZM34,12.89a5.55,5.55,0,0,1,5.6-5.7,5.65,5.65,0,1,1,0,11.3,5.59,5.59,0,0,1-5.6-5.6Zm-19.3,23.3h9.7a3.66,3.66,0,0,0,3.3,2.3,3.6,3.6,0,0,0,3.3-2.3h1.9a1.68,1.68,0,0,0,1.7-1.7v-6.4a.73.73,0,0,0-.2-.6l-2-5.6a1.5,1.5,0,0,0-1.4-1h-4.6v-1a1.68,1.68,0,0,0-1.7-1.7H6a1.6,1.6,0,0,0-1.6,1.7v14.6a1.68,1.68,0,0,0,1.7,1.7H8a3.66,3.66,0,0,0,3.3,2.3A3.79,3.79,0,0,0,14.73,36.19Zm15-12.2.8,2.5h-4.3V24Zm10.9-10,1.4-1.4a1.63,1.63,0,0,0-2.3-2.3l-1.2,1.4a1.69,1.69,0,0,0,0,2.3,1.53,1.53,0,0,0,1,.4,1.82,1.82,0,0,0,1.1-.4Zm-29.5-9.2h9.3v2.3h-3.3v8.8h-2.7V7.09h-3.3Z"/></g></g></svg>