<svg xmlns="http://www.w3.org/2000/svg" viewBox="0 0 47.86 39.64"><defs><style>.cls-1{opacity:0.16;}.cls-2{fill:#3491fa;}</style></defs><g id="图层_2" data-name="图层 2"><g id="图层_1-2" data-name="图层 1"><g class="cls-1"><path class="cls-2" d="M30.58,27.75h7.25l-1-1.37a1.52,1.52,0,0,1,0-1.73,1.24,1.24,0,0,1,1-.55,1.1,1.1,0,0,1,1,.55l2.42,3.65a1.56,1.56,0,0,1,.07,1.45,1.13,1.13,0,0,1-1,.74H30.58a1.38,1.38,0,0,1,0-2.74m4.81-8.34a8.07,8.07,0,1,0,8,8.07,8.09,8.09,0,0,0-8-8.07M9.9,4.48a36.63,36.63,0,0,1,9.43-1.21,37.1,37.1,0,0,1,9.42,1.21L30.51,13H8.12S9.9,4.48,9.9,4.48M6.43,25.06a3.23,3.23,0,1,1,3.21-3.23,3.24,3.24,0,0,1-3.21,3.23m18.5,2.42A10.44,10.44,0,0,1,35.39,17a10.12,10.12,0,0,1,2.73.41,4.88,4.88,0,0,0-1.76-2A2.4,2.4,0,0,0,38.53,13a2.36,2.36,0,0,0-2.41-2.42H33.46L31.69,3.68a3.32,3.32,0,0,0-2.24-2.35A40,40,0,0,0,9,1.33,3.43,3.43,0,0,0,6.76,3.68L5.07,10.54H3.21a2.41,2.41,0,0,0-.79,4.68A4.81,4.81,0,0,0,0,19.41v6.45A3.3,3.3,0,0,0,2.42,29v1.7A1.62,1.62,0,0,0,4,32.33H8.87a1.61,1.61,0,0,0,1.61-1.62h0V29.08H25.12a9.7,9.7,0,0,1-.19-1.6"/></g><path class="cls-2" d="M35,31.84h7.24l-1-1.37a1.5,1.5,0,0,1,0-1.73,1.23,1.23,0,0,1,1-.55,1.12,1.12,0,0,1,1,.55l2.42,3.65a1.56,1.56,0,0,1,.07,1.45,1.14,1.14,0,0,1-1,.74H35a1.38,1.38,0,0,1,0-2.74m4.81-8.34a8.07,8.07,0,1,0,8,8.07,8.09,8.09,0,0,0-8-8.07M14.33,8.57a36.55,36.55,0,0,1,9.42-1.21,37.11,37.11,0,0,1,9.43,1.21l1.76,8.48H12.54s1.79-8.48,1.79-8.48M10.85,29.15a3.23,3.23,0,1,1,3.22-3.23,3.24,3.24,0,0,1-3.22,3.23m18.51,2.42a10.45,10.45,0,0,1,10.46-10.5,10.18,10.18,0,0,1,2.73.42,4.84,4.84,0,0,0-1.77-2A2.4,2.4,0,0,0,43,17.05a2.37,2.37,0,0,0-2.42-2.42H37.89L36.12,7.77a3.32,3.32,0,0,0-2.24-2.35,40,40,0,0,0-20.44,0,3.43,3.43,0,0,0-2.25,2.35L9.5,14.63H7.64a2.41,2.41,0,0,0-.8,4.68A4.8,4.8,0,0,0,4.43,23.5V30A3.31,3.31,0,0,0,6.84,33.1v1.7a1.63,1.63,0,0,0,1.62,1.62h4.83a1.62,1.62,0,0,0,1.62-1.62h0V33.17H29.55a8.73,8.73,0,0,1-.19-1.6"/></g></g></svg>