<svg xmlns="http://www.w3.org/2000/svg" viewBox="0 0 41.04 48.11"><defs><style>.cls-1{opacity:0.16;}.cls-2{fill:#3491fa;}</style></defs><g id="图层_2" data-name="图层 2"><g id="图层_1-2" data-name="图层 1"><g class="cls-1"><path class="cls-2" d="M5.34,31.13a18.27,18.27,0,0,1-.1-25.71c.1,0,.1,0,.1-.1a18.43,18.43,0,0,1,25.9,0,18.17,18.17,0,0,1,.1,25.7l-.1.11L18.34,44Zm13-7.31a5.5,5.5,0,0,0,.2-11h-.2a5.62,5.62,0,0,0-5.4,5.6A5.44,5.44,0,0,0,18.34,23.82Z"/></g><path class="cls-2" d="M9.77,35.21a18.26,18.26,0,0,1-.1-25.7c.1,0,.1,0,.1-.1a18.41,18.41,0,0,1,25.9,0,18.17,18.17,0,0,1,.1,25.7l-.1.1-12.9,12.9Zm13-7.3a5.5,5.5,0,0,0,.2-11h-.2a5.62,5.62,0,0,0-5.4,5.6A5.44,5.44,0,0,0,22.77,27.91Z"/></g></g></svg>