<svg xmlns="http://www.w3.org/2000/svg" viewBox="0 0 48.43 40.14"><defs><style>.cls-1{opacity:0.16;}.cls-2{fill:#3491fa;}</style></defs><g id="图层_2" data-name="图层 2"><g id="图层_1-2" data-name="图层 1"><g class="cls-1"><path class="cls-2" d="M36.8,15.65a2.51,2.51,0,0,0-.1-5H33.9l-1.8-6.9a3.67,3.67,0,0,0-2.3-2.4,40.35,40.35,0,0,0-20.7,0,3.91,3.91,0,0,0-2.3,2.4l-1.7,6.9H3.3a2.43,2.43,0,0,0-2.4,2.4,2.51,2.51,0,0,0,1.6,2.3A5.11,5.11,0,0,0,0,19.75v6.5a3.33,3.33,0,0,0,2.4,3.2v1.7A1.73,1.73,0,0,0,4,32.85H9a1.58,1.58,0,0,0,1.6-1.6h0v-1.6H25.4a8.75,8.75,0,0,1-.2-1.6h0a10.58,10.58,0,0,1,10.5-10.6h.1a13.51,13.51,0,0,1,2.8.4A4.41,4.41,0,0,0,36.8,15.65ZM6.5,25.45a3.3,3.3,0,1,1,3.3-3.4A3.35,3.35,0,0,1,6.5,25.45Zm1.7-12.3L10,4.55a38.6,38.6,0,0,1,19.1,0l1.8,8.6Zm27.7,6.6A8.15,8.15,0,1,0,44,28h0A8.09,8.09,0,0,0,35.9,19.75ZM40.2,28a1.11,1.11,0,0,1-1.1,1.1H37v2.1a1.11,1.11,0,0,1-1.1,1.1h-.2a1.11,1.11,0,0,1-1.1-1.1v-2.1H32.5A1.11,1.11,0,0,1,31.4,28v-.2a1.11,1.11,0,0,1,1.1-1.1h2.1v-2.1a1.11,1.11,0,0,1,1.1-1.1h.2a1.11,1.11,0,0,1,1.1,1.1v2.1h2.1a1.11,1.11,0,0,1,1.1,1.1Z"/></g><path class="cls-2" d="M41.23,19.74a2.51,2.51,0,0,0-.1-5h-2.8l-1.8-6.9a3.67,3.67,0,0,0-2.3-2.4,40.35,40.35,0,0,0-20.7,0,3.91,3.91,0,0,0-2.3,2.4l-1.7,6.9H7.73a2.43,2.43,0,0,0-2.4,2.4,2.51,2.51,0,0,0,1.6,2.3,5.11,5.11,0,0,0-2.5,4.4v6.5a3.33,3.33,0,0,0,2.4,3.2v1.7a1.73,1.73,0,0,0,1.6,1.7h5a1.58,1.58,0,0,0,1.6-1.6h0v-1.6h14.8a8.75,8.75,0,0,1-.2-1.6h0a10.58,10.58,0,0,1,10.5-10.6h.1a13.51,13.51,0,0,1,2.8.4A4.41,4.41,0,0,0,41.23,19.74Zm-30.3,9.8a3.3,3.3,0,1,1,3.3-3.4A3.33,3.33,0,0,1,10.93,29.54Zm1.7-12.3,1.8-8.6a38.6,38.6,0,0,1,19.1,0l1.8,8.6Zm27.7,6.6a8.15,8.15,0,1,0,8.1,8.2h0A8.09,8.09,0,0,0,40.33,23.84Zm4.3,8.2a1.11,1.11,0,0,1-1.1,1.1h-2.1v2.1a1.11,1.11,0,0,1-1.1,1.1h-.2a1.11,1.11,0,0,1-1.1-1.1v-2.1h-2.1a1.11,1.11,0,0,1-1.1-1.1v-.2a1.11,1.11,0,0,1,1.1-1.1H39v-2.1a1.11,1.11,0,0,1,1.1-1.1h.2a1.11,1.11,0,0,1,1.1,1.1v2.1h2.1a1.11,1.11,0,0,1,1.1,1.1Z"/></g></g></svg>