<svg xmlns="http://www.w3.org/2000/svg" viewBox="0 0 46.43 48.09"><defs><style>.cls-1{opacity:0.16;}.cls-2{fill:#3491fa;}</style></defs><g id="图层_2" data-name="图层 2"><g id="图层_1-2" data-name="图层 1"><g class="cls-1"><path class="cls-2" d="M38.5,44H3.5A3.48,3.48,0,0,1,0,40.5V23.7a3.54,3.54,0,0,1,3.5-3.5h35A3.54,3.54,0,0,1,42,23.7V40.5A3.54,3.54,0,0,1,38.5,44"/><path class="cls-2" d="M38.5,20.2H36.4a3.54,3.54,0,0,1,3.5,3.5V40.5A3.54,3.54,0,0,1,36.4,44h2.1A3.54,3.54,0,0,0,42,40.5V23.8a3.56,3.56,0,0,0-3.5-3.6m-35,0H5.6a3.54,3.54,0,0,0-3.5,3.5V40.5A3.54,3.54,0,0,0,5.6,44H3.5A3.48,3.48,0,0,1,0,40.5V23.8a3.5,3.5,0,0,1,3.5-3.6m9.8-8.3V33.5a3.5,3.5,0,0,1-7,0V11.9Z"/><path class="cls-2" d="M11.9,11.9V33.5a3.44,3.44,0,0,1-2.8,3.4c.2,0,.5.1.7.1a3.54,3.54,0,0,0,3.5-3.5V11.9Z"/><path class="cls-2" d="M7.7,11.9V33.5a3.44,3.44,0,0,0,2.8,3.4,1.7,1.7,0,0,1-.7.1,3.54,3.54,0,0,1-3.5-3.5V11.9Z"/><path class="cls-2" d="M14,14.7H5.6a.68.68,0,0,1-.7-.7V12.6a.68.68,0,0,1,.7-.7H14a.68.68,0,0,1,.7.7V14a.75.75,0,0,1-.7.7M9.8,36a2.05,2.05,0,0,1-2.1-2.1V23.4h4.2V33.9A2.11,2.11,0,0,1,9.8,36M24.5,11.9V33.5a3.5,3.5,0,0,1-7,0V11.9Z"/><path class="cls-2" d="M23.1,11.9V33.5a3.44,3.44,0,0,1-2.8,3.4c.2,0,.5.1.7.1a3.54,3.54,0,0,0,3.5-3.5V11.9Z"/><path class="cls-2" d="M18.9,11.9V33.5a3.44,3.44,0,0,0,2.8,3.4,1.7,1.7,0,0,1-.7.1,3.54,3.54,0,0,1-3.5-3.5V11.9Z"/><path class="cls-2" d="M25.2,14.7H16.8a.68.68,0,0,1-.7-.7V12.6a.68.68,0,0,1,.7-.7h8.4a.68.68,0,0,1,.7.7V14a.75.75,0,0,1-.7.7M21,36a2.05,2.05,0,0,1-2.1-2.1V23.4h4.2V33.9A2.11,2.11,0,0,1,21,36M35.7,11.9V33.5a3.5,3.5,0,1,1-7,0V11.9Z"/><path class="cls-2" d="M34.3,11.9V33.5a3.44,3.44,0,0,1-2.8,3.4c.2,0,.5.1.7.1a3.54,3.54,0,0,0,3.5-3.5V11.9Z"/><path class="cls-2" d="M30.1,11.9V33.5a3.44,3.44,0,0,0,2.8,3.4c-.2,0-.5.1-.7.1a3.54,3.54,0,0,1-3.5-3.5V11.9Z"/><path class="cls-2" d="M36.4,14.7H28a.68.68,0,0,1-.7-.7V12.6a.68.68,0,0,1,.7-.7h8.4a.68.68,0,0,1,.7.7V14a.75.75,0,0,1-.7.7M32.2,36a2.05,2.05,0,0,1-2.1-2.1V23.4h4.2V33.9A2.11,2.11,0,0,1,32.2,36M23.8,6.3A2.8,2.8,0,1,1,21,3.5a2.8,2.8,0,0,1,2.8,2.8"/><path class="cls-2" d="M21,3.5a1.7,1.7,0,0,0-.7.1,2.79,2.79,0,0,1,0,5.4c.2,0,.5.1.7.1a2.8,2.8,0,1,0,0-5.6m7.7-1.4a2.11,2.11,0,0,1-2.1,2.1,2.05,2.05,0,0,1-2.1-2.1,2.1,2.1,0,1,1,4.2,0"/><path class="cls-2" d="M26.6,0h-.4A2.15,2.15,0,0,1,28,2.1a2,2,0,0,1-1.8,2h.4A2.05,2.05,0,0,0,28.7,2a2,2,0,0,0-2.1-2"/></g><path class="cls-2" d="M42.93,48.09h-35a3.48,3.48,0,0,1-3.5-3.5V27.79a3.54,3.54,0,0,1,3.5-3.5h35a3.54,3.54,0,0,1,3.5,3.5v16.8a3.54,3.54,0,0,1-3.5,3.5"/><path class="cls-2" d="M42.93,24.29h-2.1a3.54,3.54,0,0,1,3.5,3.5v16.8a3.54,3.54,0,0,1-3.5,3.5h2.1a3.54,3.54,0,0,0,3.5-3.5V27.89a3.56,3.56,0,0,0-3.5-3.6m-35,0H10a3.54,3.54,0,0,0-3.5,3.5v16.8a3.54,3.54,0,0,0,3.5,3.5H7.93a3.48,3.48,0,0,1-3.5-3.5V27.89a3.5,3.5,0,0,1,3.5-3.6m9.8-8.3v21.6a3.5,3.5,0,0,1-7,0V16Z"/><path class="cls-2" d="M16.33,16v21.6a3.44,3.44,0,0,1-2.8,3.4c.2,0,.5.1.7.1a3.54,3.54,0,0,0,3.5-3.5V16Z"/><path class="cls-2" d="M12.13,16v21.6a3.44,3.44,0,0,0,2.8,3.4,1.7,1.7,0,0,1-.7.1,3.54,3.54,0,0,1-3.5-3.5V16Z"/><path class="cls-2" d="M18.43,18.79H10a.68.68,0,0,1-.7-.7v-1.4A.68.68,0,0,1,10,16h8.4a.68.68,0,0,1,.7.7v1.4a.75.75,0,0,1-.7.7m-4.2,21.3a2.05,2.05,0,0,1-2.1-2.1V27.49h4.2V38a2.11,2.11,0,0,1-2.1,2.1M28.93,16v21.6a3.5,3.5,0,0,1-7,0V16Z"/><path class="cls-2" d="M27.53,16v21.6a3.44,3.44,0,0,1-2.8,3.4c.2,0,.5.1.7.1a3.54,3.54,0,0,0,3.5-3.5V16Z"/><path class="cls-2" d="M23.33,16v21.6a3.44,3.44,0,0,0,2.8,3.4,1.7,1.7,0,0,1-.7.1,3.54,3.54,0,0,1-3.5-3.5V16Z"/><path class="cls-2" d="M29.63,18.79h-8.4a.68.68,0,0,1-.7-.7v-1.4a.68.68,0,0,1,.7-.7h8.4a.68.68,0,0,1,.7.7v1.4a.75.75,0,0,1-.7.7m-4.2,21.3a2.05,2.05,0,0,1-2.1-2.1V27.49h4.2V38a2.11,2.11,0,0,1-2.1,2.1M40.13,16v21.6a3.5,3.5,0,0,1-7,0V16Z"/><path class="cls-2" d="M38.73,16v21.6a3.44,3.44,0,0,1-2.8,3.4c.2,0,.5.1.7.1a3.54,3.54,0,0,0,3.5-3.5V16Z"/><path class="cls-2" d="M34.53,16v21.6a3.44,3.44,0,0,0,2.8,3.4c-.2,0-.5.1-.7.1a3.54,3.54,0,0,1-3.5-3.5V16Z"/><path class="cls-2" d="M40.83,18.79h-8.4a.68.68,0,0,1-.7-.7v-1.4a.68.68,0,0,1,.7-.7h8.4a.68.68,0,0,1,.7.7v1.4a.75.75,0,0,1-.7.7m-4.2,21.3a2.05,2.05,0,0,1-2.1-2.1V27.49h4.2V38a2.11,2.11,0,0,1-2.1,2.1m-8.4-29.7a2.8,2.8,0,1,1-2.8-2.8,2.8,2.8,0,0,1,2.8,2.8"/><path class="cls-2" d="M25.43,7.59a1.7,1.7,0,0,0-.7.1,2.79,2.79,0,0,1,0,5.4c.2,0,.5.1.7.1a2.8,2.8,0,1,0,0-5.6m7.7-1.4A2.11,2.11,0,0,1,31,8.29a2.05,2.05,0,0,1-2.1-2.1,2.1,2.1,0,1,1,4.2,0"/><path class="cls-2" d="M31,4.09h-.4a2.15,2.15,0,0,1,1.8,2.1,2,2,0,0,1-1.8,2H31a2.05,2.05,0,0,0,2.1-2.1,2,2,0,0,0-2.1-2"/></g></g></svg>