<svg xmlns="http://www.w3.org/2000/svg" viewBox="0 0 48.43 45.29"><defs><style>.cls-1{opacity:0.16;}.cls-2{fill:#3491fa;}</style></defs><g id="图层_2" data-name="图层 2"><g id="图层_1-2" data-name="图层 1"><g class="cls-1"><path class="cls-2" d="M35.2,40.9A9.11,9.11,0,1,1,44,31.8,8.94,8.94,0,0,1,35.2,40.9ZM20.5,18.2a8.94,8.94,0,0,1-8.8-9.1A8.94,8.94,0,0,1,20.5,0a8.94,8.94,0,0,1,8.8,9.1A8.94,8.94,0,0,1,20.5,18.2ZM17.6,32.1a8.94,8.94,0,0,1-8.8,9.1A9.11,9.11,0,0,1,8.8,23,8.88,8.88,0,0,1,17.6,32.1Z"/></g><path class="cls-2" d="M39.63,45a9.11,9.11,0,1,1,8.8-9.1A8.94,8.94,0,0,1,39.63,45Zm-14.7-22.7a8.94,8.94,0,0,1-8.8-9.1,8.94,8.94,0,0,1,8.8-9.1,8.94,8.94,0,0,1,8.8,9.1A8.94,8.94,0,0,1,24.93,22.29ZM22,36.19a8.94,8.94,0,0,1-8.8,9.1,9.11,9.11,0,0,1,0-18.2A8.88,8.88,0,0,1,22,36.19Z"/></g></g></svg>