<svg xmlns="http://www.w3.org/2000/svg" viewBox="0 0 47.93 39.76"><defs><style>.cls-1{opacity:0.16;}.cls-2{fill:#3491fa;}</style></defs><g id="图层_2" data-name="图层 2"><g id="图层_1-2" data-name="图层 1"><g class="cls-1"><path class="cls-2" d="M36.4,15.37A2.4,2.4,0,0,0,38.6,13a2.31,2.31,0,0,0-2.4-2.4H33.5l-1.8-6.9a3.46,3.46,0,0,0-2.3-2.4A41.32,41.32,0,0,0,9,1.27,3.77,3.77,0,0,0,6.8,3.68l-1.7,6.9H3.2A2.31,2.31,0,0,0,.8,13a2.61,2.61,0,0,0,1.6,2.29A4.88,4.88,0,0,0,0,19.47v6.4A3.2,3.2,0,0,0,2.4,29v1.7A1.57,1.57,0,0,0,4,32.27H8.8a1.58,1.58,0,0,0,1.6-1.6h0V29.08H25a8.75,8.75,0,0,1-.2-1.6h0A10.49,10.49,0,0,1,35.3,17a11.47,11.47,0,0,1,2.7.39A3.93,3.93,0,0,0,36.4,15.37Zm-30,9.71a3.21,3.21,0,0,1,0-6.41,3.21,3.21,0,0,1,0,6.41ZM8.1,13l1.8-8.5a37.28,37.28,0,0,1,9.4-1.2,36.71,36.71,0,0,1,9.4,1.2L30.5,13Z"/><path class="cls-2" d="M35.5,19.48a8.1,8.1,0,1,0,8,8.1A8,8,0,0,0,35.5,19.48ZM40,29.67A1.63,1.63,0,0,1,37.7,32l-2.2-2.2L33.3,32a1.57,1.57,0,0,1-2.2,0,1.69,1.69,0,0,1-.1-2.3l2.2-2.2L31,25.27a1.57,1.57,0,0,1,0-2.2,1.69,1.69,0,0,1,2.3-.1l2.2,2.2L37.7,23a1.63,1.63,0,1,1,2.3,2.3l-2.2,2.2Z"/></g><path class="cls-2" d="M40.83,19.46a2.4,2.4,0,0,0,2.2-2.4,2.31,2.31,0,0,0-2.4-2.4h-2.7l-1.8-6.9a3.46,3.46,0,0,0-2.3-2.4,41.44,41.44,0,0,0-20.4,0,3.76,3.76,0,0,0-2.2,2.4l-1.7,6.9H7.63a2.31,2.31,0,0,0-2.4,2.4,2.62,2.62,0,0,0,1.6,2.3,4.88,4.88,0,0,0-2.4,4.2V30a3.21,3.21,0,0,0,2.4,3.1v1.7a1.58,1.58,0,0,0,1.6,1.6h4.8a1.58,1.58,0,0,0,1.6-1.6h0v-1.6h14.6a8.75,8.75,0,0,1-.2-1.6h0a10.5,10.5,0,0,1,10.5-10.5,11,11,0,0,1,2.7.4A3.89,3.89,0,0,0,40.83,19.46Zm-30,9.7A3.2,3.2,0,1,1,14,26,3.16,3.16,0,0,1,10.83,29.16Zm1.7-12.1,1.8-8.5a37.28,37.28,0,0,1,9.4-1.2,36.71,36.71,0,0,1,9.4,1.2l1.8,8.5Z"/><path class="cls-2" d="M39.93,23.56a8.1,8.1,0,1,0,8,8.1A8,8,0,0,0,39.93,23.56Zm4.5,10.2a1.63,1.63,0,0,1-2.3,2.3l-2.2-2.2-2.2,2.2a1.57,1.57,0,0,1-2.2,0,1.69,1.69,0,0,1-.1-2.3l2.2-2.2-2.2-2.2a1.57,1.57,0,0,1,0-2.2,1.69,1.69,0,0,1,2.3-.1l2.2,2.2,2.2-2.2a1.63,1.63,0,0,1,2.3,2.3l-2.2,2.2Z"/></g></g></svg>