<svg xmlns="http://www.w3.org/2000/svg" viewBox="0 0 48.53 41.09"><defs><style>.cls-1{opacity:0.16;}.cls-2{fill:#3491fa;}</style></defs><g id="图层_2" data-name="图层 2"><g id="图层_1-2" data-name="图层 1"><g class="cls-1"><path class="cls-2" d="M41.5,17.6a2.81,2.81,0,0,0-.3-5.6h-3l-2-7.8a3.92,3.92,0,0,0-2.6-2.7,46,46,0,0,0-23.3,0A4.12,4.12,0,0,0,7.7,4.2L5.8,12.1H3.7A2.73,2.73,0,0,0,.9,14.9a2.8,2.8,0,0,0,1.9,2.6A5.2,5.2,0,0,0,0,22.2v7.4a3.84,3.84,0,0,0,2.8,3.6v1.9A1.9,1.9,0,0,0,4.7,37h5.5a1.9,1.9,0,0,0,1.9-1.9h0V33.2H28.8a11,11,0,0,1-.2-1.8h0a12,12,0,0,1,11.9-12,10.59,10.59,0,0,1,3.1.5A6.59,6.59,0,0,0,41.5,17.6ZM7.3,28.7a3.7,3.7,0,0,1,0-7.4A3.76,3.76,0,0,1,11,25,3.69,3.69,0,0,1,7.3,28.7Zm2-13.9,2-9.7A43.22,43.22,0,0,1,22.1,3.7,43.22,43.22,0,0,1,32.9,5.1l2,9.7Z"/><path class="cls-2" d="M.5,19.9a10.59,10.59,0,0,1,3.1-.5,11.89,11.89,0,0,1,11.9,12h0a11,11,0,0,1-.2,1.8H32v1.9h0A1.9,1.9,0,0,0,33.9,37h5.5a1.9,1.9,0,0,0,1.9-1.9V33.2a3.84,3.84,0,0,0,2.8-3.6V22.2a5.47,5.47,0,0,0-2.8-4.8,2.8,2.8,0,0,0,1.9-2.6A2.73,2.73,0,0,0,40.4,12H38.3L36.4,4.2a4.12,4.12,0,0,0-2.6-2.7,46,46,0,0,0-23.3,0A3.87,3.87,0,0,0,7.8,4.2L5.8,12h-3a2.81,2.81,0,0,0-.3,5.6A5.5,5.5,0,0,0,.5,19.9ZM33,25a3.7,3.7,0,1,1,3.7,3.7A3.69,3.69,0,0,1,33,25ZM9.2,14.8l2-9.7A43.22,43.22,0,0,1,22,3.7,44.46,44.46,0,0,1,32.8,5.1l2,9.7Z"/></g><path class="cls-2" d="M45.93,21.69a2.81,2.81,0,0,0-.3-5.6h-3l-2-7.8A3.92,3.92,0,0,0,38,5.59a46,46,0,0,0-23.3,0,4.12,4.12,0,0,0-2.6,2.7l-1.9,7.9H8.13A2.73,2.73,0,0,0,5.33,19a2.8,2.8,0,0,0,1.9,2.6,5.2,5.2,0,0,0-2.8,4.7v7.4a3.84,3.84,0,0,0,2.8,3.6v1.9a1.9,1.9,0,0,0,1.9,1.9h5.5a1.9,1.9,0,0,0,1.9-1.9h0v-1.9h16.7a11,11,0,0,1-.2-1.8h0a12,12,0,0,1,11.9-12A10.59,10.59,0,0,1,48,24,6.59,6.59,0,0,0,45.93,21.69Zm-34.2,11.1a3.7,3.7,0,1,1,3.7-3.7A3.69,3.69,0,0,1,11.73,32.79Zm2-13.9,2-9.7a42.36,42.36,0,0,1,21.6,0l2,9.7Z"/><path class="cls-2" d="M4.93,24a10.59,10.59,0,0,1,3.1-.5,11.89,11.89,0,0,1,11.9,12h0a11,11,0,0,1-.2,1.8h16.7v1.9h0a1.9,1.9,0,0,0,1.9,1.9h5.5a1.9,1.9,0,0,0,1.9-1.9v-1.9a3.84,3.84,0,0,0,2.8-3.6v-7.4a5.47,5.47,0,0,0-2.8-4.8,2.8,2.8,0,0,0,1.9-2.6,2.73,2.73,0,0,0-2.8-2.8h-2.1l-1.9-7.8a4.12,4.12,0,0,0-2.6-2.7,46,46,0,0,0-23.3,0,3.87,3.87,0,0,0-2.7,2.7l-2,7.8h-3a2.81,2.81,0,0,0-.3,5.6A5.5,5.5,0,0,0,4.93,24Zm32.5,5.1a3.7,3.7,0,1,1,3.7,3.7A3.69,3.69,0,0,1,37.43,29.09Zm-23.8-10.2,2-9.7a43.22,43.22,0,0,1,10.8-1.4,44.46,44.46,0,0,1,10.8,1.4l2,9.7Z"/></g></g></svg>